<?xml version="1.0" encoding="UTF-8"?> <svg xmlns="http://www.w3.org/2000/svg" xmlns:xlink="http://www.w3.org/1999/xlink" xmlns:xodm="http://www.corel.com/coreldraw/odm/2003" xml:space="preserve" width="529px" height="103px" version="1.1" style="shape-rendering:geometricPrecision; text-rendering:geometricPrecision; image-rendering:optimizeQuality; fill-rule:evenodd; clip-rule:evenodd" viewBox="0 0 1301.81 253.92"> <defs> <style type="text/css"> .fil0 {fill:black} .fil1 {fill:#1A1A1A;fill-rule:nonzero} .fil2 {fill:#333333;fill-rule:nonzero} .fil3 {fill:white;fill-rule:nonzero} </style> </defs> <g id="Layer_x0020_1"> <metadata id="CorelCorpID_0Corel-Layer"></metadata> <path class="fil0" d="M348.87 200.9c-27.69,0 -49.22,-11.09 -64.54,-33.26l-0.49 -0.71 19.33 -22.2 0.81 1.16c7.78,11.12 15.22,18.81 22.32,23.07 3.52,2.11 7.38,3.7 11.57,4.75 4.2,1.06 8.76,1.6 13.65,1.6 8.95,0 16.5,-2.04 22.66,-6.09 3.02,-1.99 5.29,-4.26 6.79,-6.8 1.48,-2.52 2.23,-5.32 2.23,-8.42 0,-3.52 -0.75,-6.72 -2.23,-9.59 -1.48,-2.88 -3.74,-5.46 -6.73,-7.73 -6.13,-4.63 -15.86,-8.22 -29.19,-10.76 -17.41,-3.41 -30.5,-9.49 -39.26,-18.2 -8.81,-8.77 -13.22,-20.18 -13.22,-34.23 0,-9.39 2.64,-17.72 7.93,-24.98 2.62,-3.62 5.72,-6.86 9.27,-9.71 3.54,-2.84 7.54,-5.31 12,-7.4 8.91,-4.16 18.91,-6.25 29.99,-6.25 13.44,0 24.99,2.51 34.68,7.53 9.7,5.04 17.5,12.6 23.4,22.66l0.43 0.74 -19.91 19.66 -0.73 -1.19c-2.37,-3.87 -4.97,-7.28 -7.78,-10.23 -2.82,-2.96 -5.86,-5.45 -9.1,-7.49 -3.23,-2.02 -6.67,-3.55 -10.29,-4.57 -3.61,-1.01 -7.42,-1.52 -11.42,-1.52 -9.08,0 -16.41,2.06 -22,6.17 -2.75,2.03 -4.82,4.37 -6.18,7 -1.36,2.63 -2.04,5.58 -2.04,8.86 0,3.3 0.61,6.27 1.85,8.9 1.23,2.64 3.09,4.98 5.57,7 2.51,2.05 5.96,3.91 10.33,5.57 4.43,1.69 9.8,3.18 16.06,4.44 8.91,1.86 16.84,4.3 23.78,7.31 6.97,3.01 12.96,6.61 17.93,10.77 5.02,4.19 8.79,8.83 11.31,13.91 2.52,5.1 3.79,10.63 3.79,16.58 0,16.4 -5.63,29.46 -16.89,39.16 -5.62,4.83 -12.25,8.47 -19.89,10.88 -7.6,2.4 -16.2,3.61 -25.79,3.61zm927.81 18.18l0 -26.33 3.99 0 8.61 14.03 8.77 -14.03 3.76 0 0 26.33 -4.06 0 0 -10.79c0,-1.69 0.03,-3.23 0.09,-4.63 0.06,-1.41 0.16,-2.78 0.28,-4.11l-7.71 11.97 -2.48 0 -7.57 -11.93c0.13,1.26 0.22,2.58 0.29,3.97 0.06,1.4 0.09,2.97 0.09,4.73l0 10.79 -4.06 0zm-16.67 0l0 -22.42 -7.38 0 0 -3.91 19.04 0 0 3.91 -7.6 0 0 22.42 -4.06 0zm-79.84 33.3l21.25 -48.96 -59.3 -133.68 31.35 0 39.81 93.69c0.4,0.88 0.88,2.07 1.42,3.52l0.72 2.01c11.83,-33.11 23.9,-66.15 35.84,-99.22l31.82 0 -52.67 128.04 -21.73 56.14 -29.19 0 0.68 -1.54zm-112.8 -51.48c-5.33,0 -10.43,-0.75 -15.3,-2.22 -4.86,-1.48 -9.5,-3.7 -13.88,-6.65 -4.37,-2.94 -8.32,-6.43 -11.81,-10.43 -3.5,-4 -6.56,-8.54 -9.16,-13.6 -2.62,-5.06 -4.58,-10.45 -5.88,-16.17 -1.31,-5.7 -1.96,-11.73 -1.96,-18.08 0,-6.43 0.66,-12.51 1.99,-18.23 1.32,-5.73 3.31,-11.12 5.97,-16.15 5.31,-10.05 12.52,-17.95 21.6,-23.67 4.55,-2.87 9.38,-5.03 14.48,-6.46 5.1,-1.43 10.48,-2.16 16.12,-2.16 4.81,0 9.37,0.53 13.66,1.58 4.3,1.05 8.33,2.62 12.06,4.72 3.73,2.08 7.03,4.48 9.89,7.18 1.94,1.82 3.68,3.79 5.22,5.9l0 -16.72 27.28 0 0 128.75 -27.28 0 0 -17.38c-1.78,2.14 -3.8,4.16 -6.04,6.06 -3.13,2.64 -6.73,5.04 -10.78,7.21 -4.05,2.17 -8.27,3.8 -12.63,4.88 -4.37,1.09 -8.89,1.64 -13.55,1.64zm6.5 -25.11c7.34,0 13.82,-1.79 19.42,-5.37 2.8,-1.79 5.3,-3.92 7.51,-6.4 2.2,-2.48 4.11,-5.31 5.71,-8.47 1.61,-3.17 2.81,-6.57 3.62,-10.2 0.8,-3.62 1.2,-7.49 1.2,-11.6 0,-8.02 -1.61,-15.17 -4.82,-21.43 -1.6,-3.13 -3.51,-5.93 -5.71,-8.38 -2.2,-2.45 -4.71,-4.58 -7.51,-6.38 -5.6,-3.57 -12.08,-5.36 -19.42,-5.36 -7.17,0 -13.53,1.79 -19.04,5.36 -2.76,1.78 -5.24,3.92 -7.43,6.38 -2.19,2.46 -4.09,5.26 -5.68,8.38 -3.21,6.26 -4.82,13.41 -4.82,21.43 0,8.18 1.61,15.45 4.82,21.8 1.59,3.15 3.49,5.98 5.69,8.47 2.19,2.48 4.67,4.62 7.42,6.41 2.75,1.78 5.72,3.12 8.89,4.02 3.17,0.89 6.56,1.34 10.15,1.34zm-136.45 25.11c-5.87,0 -11.44,-0.73 -16.71,-2.19 -5.27,-1.45 -10.22,-3.63 -14.85,-6.54 -4.62,-2.91 -8.77,-6.35 -12.42,-10.31 -3.66,-3.97 -6.84,-8.46 -9.53,-13.48 -2.7,-5.03 -4.73,-10.42 -6.07,-16.15 -1.35,-5.73 -2.02,-11.81 -2.02,-18.24 0,-6.42 0.66,-12.51 1.99,-18.23 1.32,-5.73 3.32,-11.12 5.97,-16.15 2.66,-5.02 5.8,-9.52 9.41,-13.48 3.62,-3.97 7.73,-7.41 12.31,-10.31 4.58,-2.91 9.49,-5.1 14.7,-6.55 5.2,-1.46 10.71,-2.19 16.5,-2.19 4.25,0 8.4,0.46 12.44,1.36 4.04,0.9 7.97,2.26 11.77,4.06 6.58,3.11 12.05,6.85 16.38,11.21l0 -65.79 27.04 0 0 180.57 -27.04 0 0 -15.24c-1.57,1.84 -3.36,3.58 -5.37,5.23 -2.91,2.37 -6.29,4.55 -10.13,6.51 -3.86,1.97 -7.82,3.44 -11.88,4.43 -4.07,0.98 -8.24,1.48 -12.49,1.48zm3.38 -23.67c3.68,0 7.13,-0.47 10.36,-1.4 3.22,-0.93 6.23,-2.33 9.03,-4.19 2.81,-1.88 5.32,-4.1 7.52,-6.65 2.2,-2.55 4.11,-5.46 5.72,-8.71 1.6,-3.25 2.81,-6.73 3.61,-10.44 0.81,-3.71 1.21,-7.66 1.21,-11.85 0,-4.18 -0.4,-8.13 -1.21,-11.85 -0.8,-3.71 -2.01,-7.19 -3.61,-10.44 -1.61,-3.24 -3.52,-6.15 -5.72,-8.71 -2.2,-2.55 -4.71,-4.77 -7.52,-6.64 -2.8,-1.87 -5.81,-3.27 -9.03,-4.2 -3.23,-0.93 -6.68,-1.4 -10.36,-1.4 -3.68,0 -7.14,0.47 -10.36,1.4 -3.22,0.93 -6.24,2.34 -9.04,4.2 -2.8,1.87 -5.32,4.09 -7.52,6.64 -2.2,2.55 -4.11,5.46 -5.71,8.71 -3.22,6.51 -4.83,13.94 -4.83,22.29 0,8.35 1.61,15.78 4.83,22.29 1.6,3.25 3.51,6.15 5.71,8.71 2.2,2.56 4.72,4.77 7.52,6.65 2.8,1.86 5.82,3.26 9.04,4.19 3.22,0.93 6.68,1.4 10.36,1.4zm-126.65 23.67c-6.59,0 -12.81,-0.71 -18.67,-2.12 -5.86,-1.41 -11.35,-3.52 -16.45,-6.34 -5.11,-2.81 -9.67,-6.16 -13.67,-10.02 -4.01,-3.86 -7.47,-8.26 -10.37,-13.16 -2.91,-4.91 -5.09,-10.19 -6.54,-15.83 -1.45,-5.64 -2.17,-11.64 -2.17,-17.99 0,-13.52 2.82,-25.39 8.45,-35.6 2.81,-5.1 6.17,-9.67 10.06,-13.68 3.88,-4 8.3,-7.46 13.25,-10.36 4.95,-2.9 10.26,-5.11 15.91,-6.6 5.64,-1.48 11.66,-2.27 18.02,-2.35 5.57,0.08 10.87,0.82 15.88,2.21 5.02,1.39 9.76,3.44 14.22,6.14 4.47,2.71 8.47,5.91 11.98,9.58 3.52,3.69 6.57,7.86 9.15,12.53 2.58,4.67 4.48,9.69 5.68,15.05 1.2,5.35 1.72,11.04 1.56,17.08l-0.26 11.69 -96.71 0c0.77,5.06 2.21,9.64 4.33,13.71 2.28,4.39 5.36,8.21 9.22,11.44 3.86,3.24 8.26,5.68 13.16,7.3 4.93,1.63 10.39,2.45 16.38,2.45 3.07,0 6.04,-0.26 8.87,-0.77 2.85,-0.51 5.59,-1.28 8.2,-2.29 2.62,-1.01 5.36,-2.45 8.2,-4.29 2.86,-1.85 5.84,-4.13 8.95,-6.84l0.92 -0.8 13.79 19.36 -0.68 0.66c-3.03,2.95 -6.48,5.62 -10.32,8.01 -3.82,2.38 -8.06,4.49 -12.71,6.33 -4.64,1.83 -9.27,3.21 -13.86,4.12 -4.61,0.92 -9.2,1.38 -13.77,1.38zm-2.17 -108.95c-10.6,0 -19.04,2.38 -25.31,7.13 -5.95,4.51 -9.99,11.2 -12.12,20.07l68.38 0 0 -0.58c-0.24,-2.51 -0.78,-4.9 -1.62,-7.15 -0.84,-2.27 -2,-4.42 -3.47,-6.42 -1.48,-2.02 -3.15,-3.83 -5.01,-5.42 -1.86,-1.59 -3.92,-2.97 -6.18,-4.13 -2.25,-1.17 -4.6,-2.05 -7.04,-2.63 -2.44,-0.57 -4.99,-0.87 -7.63,-0.87zm-262.17 105.43l0 -127.64 27.28 0 0 17.66c1.6,-2.06 3.39,-4.01 5.37,-5.85 2.87,-2.67 6.15,-5.11 9.83,-7.31 3.7,-2.22 7.51,-3.89 11.41,-5 3.92,-1.11 7.94,-1.67 12.05,-1.67 10.1,0 18.47,2.28 25.09,6.82 6.05,4.16 10.61,10.2 13.68,18.11 1,-1.7 2.14,-3.34 3.42,-4.94 1.83,-2.25 3.96,-4.42 6.39,-6.47 2.41,-2.05 4.95,-3.89 7.61,-5.52 2.65,-1.64 5.44,-3.07 8.34,-4.3 5.84,-2.47 11.73,-3.7 17.66,-3.7 14.41,0 25.25,4.54 32.5,13.61 7.19,9.01 10.79,22.44 10.79,40.28l0 77.03 -27.29 0 0 -75.59c0,-10.5 -1.96,-18.19 -5.89,-23.04 -3.88,-4.78 -9.98,-7.18 -18.3,-7.18 -4.45,0 -8.52,0.7 -12.21,2.1 -3.68,1.39 -7,3.49 -9.93,6.26 -2.94,2.79 -5.15,5.91 -6.61,9.34 -1.47,3.43 -2.2,7.21 -2.2,11.32l0 76.79 -27.29 0 0 -76.07c0,-4.89 -0.52,-9.19 -1.55,-12.9 -1.02,-3.66 -2.55,-6.77 -4.59,-9.3 -2.01,-2.51 -4.47,-4.39 -7.37,-5.64 -2.94,-1.27 -6.34,-1.9 -10.2,-1.9 -2.89,0 -5.64,0.32 -8.24,0.96 -2.59,0.63 -5.06,1.6 -7.38,2.88 -2.34,1.28 -4.43,2.77 -6.26,4.47 -1.83,1.71 -3.43,3.63 -4.79,5.76 -1.34,2.11 -2.35,4.37 -3.03,6.78 -0.67,2.41 -1.01,4.97 -1.01,7.69l0 77.27 -27.28 0 0 -1.11zm-75.33 3.52c-5.32,0 -10.43,-0.75 -15.3,-2.22 -4.86,-1.48 -9.5,-3.7 -13.88,-6.65 -4.37,-2.94 -8.32,-6.43 -11.81,-10.43 -3.49,-4 -6.55,-8.54 -9.16,-13.6 -2.62,-5.06 -4.58,-10.45 -5.88,-16.17 -1.31,-5.7 -1.96,-11.73 -1.96,-18.08 0,-6.43 0.67,-12.51 1.99,-18.23 1.32,-5.73 3.32,-11.12 5.97,-16.15 5.32,-10.05 12.52,-17.95 21.6,-23.67 4.55,-2.87 9.39,-5.03 14.48,-6.46 5.1,-1.43 10.48,-2.16 16.12,-2.16 4.81,0 9.37,0.53 13.66,1.58 4.31,1.05 8.33,2.62 12.06,4.72 3.73,2.08 7.04,4.48 9.89,7.18 1.94,1.82 3.68,3.79 5.22,5.9l0 -16.72 27.28 0 0 128.75 -27.28 0 0 -17.38c-1.78,2.14 -3.8,4.16 -6.04,6.06 -3.13,2.64 -6.73,5.04 -10.77,7.21 -4.06,2.17 -8.27,3.8 -12.64,4.88 -4.37,1.09 -8.89,1.64 -13.55,1.64zm6.51 -25.11c7.34,0 13.81,-1.79 19.41,-5.37 2.8,-1.79 5.31,-3.93 7.51,-6.4 2.21,-2.48 4.11,-5.31 5.71,-8.47 1.61,-3.17 2.81,-6.57 3.62,-10.2 0.8,-3.62 1.2,-7.49 1.2,-11.6 0,-8.02 -1.61,-15.17 -4.81,-21.43 -1.61,-3.13 -3.51,-5.93 -5.72,-8.38 -2.2,-2.45 -4.71,-4.58 -7.51,-6.38 -5.6,-3.57 -12.07,-5.36 -19.41,-5.36 -7.18,0 -13.53,1.79 -19.05,5.36 -2.76,1.78 -5.24,3.92 -7.43,6.38 -2.18,2.46 -4.09,5.26 -5.68,8.38 -3.21,6.26 -4.82,13.41 -4.82,21.43 0,8.18 1.61,15.45 4.82,21.8 1.6,3.15 3.5,5.98 5.69,8.47 2.19,2.48 4.67,4.62 7.42,6.41 2.75,1.78 5.72,3.12 8.89,4.02 3.17,0.89 6.56,1.34 10.16,1.34z"></path> <g id="_105553318310304"> <path class="fil1" d="M106.8 0l111.48 1.12 35.34 0.35c10.4,0.1 13.61,8.61 7.23,18.97l-130.1 167.53c-5.16,8.37 -17.88,12.43 -20.16,6.47l12.46 -40.18 -110.68 -1.1c-10.4,-0.11 -13.65,-8.57 -7.26,-18.92 23.79,-38.59 47.55,-77.05 71.35,-115.65 6.34,-10.35 19.94,-18.69 30.34,-18.59z"></path> <path class="fil2" d="M157.67 234.25l-111.51 -1.12 -35.35 -0.35c-10.4,-0.1 -13.89,-8.61 -7.84,-18.97l124.76 -167.52c4.89,-8.38 17.48,-12.44 19.96,-6.48l-11.19 40.18 110.72 1.11c10.41,0.1 13.92,8.56 7.87,18.91 -22.56,38.59 -45.1,77.05 -67.67,115.65 -6.01,10.35 -19.35,18.69 -29.75,18.59z"></path> <path class="fil3" d="M214.22 80.67l-83.25 107.2c-5.16,8.37 -17.88,12.43 -20.17,6.48l12.47 -40.18 -75.17 -0.75 79.85 -107.23c4.89,-8.37 17.48,-12.43 19.96,-6.47l-11.19 40.18 77.5 0.77z"></path> </g> </g> </svg> 